<?xml version="1.0" encoding="UTF-8"?>
<!DOCTYPE svg PUBLIC "-//W3C//DTD SVG 1.1//EN" "http://www.w3.org/Graphics/SVG/1.1/DTD/svg11.dtd">
<!-- Creator: CorelDRAW 2021.5 -->
<svg xmlns="http://www.w3.org/2000/svg" xml:space="preserve" width="210mm" height="210mm" version="1.1" style="shape-rendering:geometricPrecision; text-rendering:geometricPrecision; image-rendering:optimizeQuality; fill-rule:evenodd; clip-rule:evenodd"
viewBox="0 0 21000 21000"
 xmlns:xlink="http://www.w3.org/1999/xlink"
 xmlns:xodm="http://www.corel.com/coreldraw/odm/2003">
 <defs>
  <style type="text/css">
   <![CDATA[
    .fil1 {fill:#383838}
    .fil0 {fill:#4481C3}
   ]]>
  </style>
 </defs>
 <g id="Слой_x0020_1">
  <metadata id="CorelCorpID_0Corel-Layer"/>
  <path class="fil0" d="M3229.03 5310.45c31.39,-141.7 157.15,-242.69 302.26,-242.69 170.88,0 309.48,138.6 309.48,309.48 0,22.46 -2.41,44.93 -7.32,66.79l-2273.45 10260.08c-31.29,141.5 -156.84,242.39 -301.95,242.39 -170.89,0 -309.38,-138.5 -309.38,-309.38 0,-22.46 2.51,-44.93 7.32,-66.89l2273.24 -10259.78 -0.2 0z"/>
  <path class="fil1" d="M8460.16 9773.9c-8.53,-390.61 -115.73,-668.69 -321.61,-834.26 -205.89,-165.57 -504.13,-248.41 -894.74,-248.41 -275.98,0 -526.39,55.16 -751.43,165.57 -223.03,108.91 -423.5,260.74 -588.87,445.87 -171.88,193.14 -314.89,411.56 -423.5,646.23 -114.62,244.09 -199.56,502.02 -254.72,773.69 -55.16,254.72 -82.83,505.23 -82.83,751.43 0,246.2 41.41,465.92 124.15,659.07 82.33,192.34 221.43,355.91 398.13,468.13 182.51,118.83 430.92,178.3 745.11,178.3 3.11,-0.1 6.22,-0.1 9.32,-0.1 185.53,0 370.15,-32.39 544.55,-95.47 172.69,-62.78 335.25,-152.23 480.96,-264.25 147.72,-114.12 279.99,-248.6 391.51,-398.13 116.13,-155.94 215.11,-325.12 293.23,-503.12l451.78 0.3c-97.67,220.72 -216.51,429.82 -356.61,627.27 -138.09,195.56 -304.96,370.66 -493.5,518.67 -196.45,152.44 -417.58,272.68 -652.65,353.61 -246.19,87.04 -522.18,130.57 -827.84,130.57 -352.4,0 -640.02,-64.79 -862.85,-194.25 -215.51,-121.85 -390.91,-304.97 -503.12,-525.49 -112.52,-220.73 -174.1,-476.55 -184.73,-767.38 -10.63,-290.82 20.16,-599.7 92.36,-926.52 93.37,-437.24 226.04,-808.8 398.03,-1114.46 171.99,-305.67 373.56,-555.08 605.02,-748.22 224.13,-188.84 484.77,-331.94 764.26,-419.89 278.89,-86.25 570.32,-130.77 862.45,-130.77 4.31,0 8.92,0 13.13,0 471.24,0 840.59,123.15 1108.04,369.34 267.46,246.2 388.51,607.12 363.03,1082.57l-446.06 0.1zm649.54 3254.02l700.49 -3298.64 382.08 0 -700.49 3298.64 -382.08 0zm955.21 -4584.99l-121.05 566.81 420.4 0 121.04 -566.81 -420.39 0zm1560.22 4597.73c-46.73,8.52 -111.42,23.37 -194.25,44.63 -82.84,21.26 -170.89,31.89 -264.25,31.89 -191.04,0 -325.82,-47.74 -404.35,-143.31 -78.52,-95.57 -92.36,-266.35 -41.41,-512.65l509.44 -2413.54 -464.92 0 70.1 -318.4 464.82 0 197.46 -917 382.08 0 -197.46 917 617.75 0 -70.1 318.4 -617.65 0 -477.65 2260.71c-16.95,80.62 -29.68,150.72 -38.21,210.19 -8.52,59.47 -5.31,108.31 9.53,146.52 14.84,38.2 42.42,65.78 82.83,82.83 40.42,17.05 100.79,25.47 181.52,25.47 50.94,0 102.99,-4.21 156.04,-12.73 53.05,-8.53 107.2,-19.16 162.36,-31.89l-63.68 312.08 0 -0.2zm1369.08 -3311.38l-700.49 3298.64 382.09 0 700.48 -3298.64 -382.08 0zm133.78 -719.54l121.04 -566.81 420.19 0 -121.04 566.81 -420.19 0zm3340.06 1684.37c14.85,142.2 5.32,294.03 -28.68,455.29l-2152.4 0c50.15,-155.94 118.94,-305.87 203.68,-445.96 84.94,-140.1 184.72,-263.25 299.35,-369.35 114.62,-106.1 243.09,-191.04 385.29,-254.72 143.31,-62.88 298.45,-95.47 455.19,-95.47 4.11,0 8.73,0.1 12.74,0.1 169.78,0 314.19,30.78 433.02,92.36 118.84,61.57 210.2,144.31 273.88,248.4 63.68,104.1 102.99,227.15 117.83,369.35l0.1 0zm-2251.18 773.69c-28.28,125.56 -42.62,254.22 -42.62,383.09 0,41.01 1.51,82.13 4.32,122.95 12.73,159.25 53.05,297.14 121.04,413.97 67.89,116.73 164.47,210.2 289.72,280.19 125.26,70.1 279.09,105.1 461.71,105.1 250.51,0 478.66,-65.78 684.54,-197.46 205.88,-131.67 364.03,-318.4 474.44,-560.39l426.71 0.2c-78.22,153.14 -171.88,299.75 -277.28,435.94 -102.69,132.68 -224.34,250.81 -359.62,350.19 -139.1,101.69 -294.34,180.41 -458.5,232.56 -169.78,55.16 -358.72,82.84 -566.81,82.84 -263.24,0 -480.76,-44.63 -652.75,-133.78 -171.99,-89.16 -303.56,-211.2 -394.82,-366.14 -91.26,-154.94 -143.3,-337.56 -156.04,-547.65 -12.74,-210.2 6.42,-436.24 57.36,-678.22 49.14,-237.48 133.68,-467.73 248.61,-681.24 114.62,-212.3 253.62,-398.02 417.08,-557.17 160.45,-157.05 348.29,-284.71 553.87,-375.67 205.58,-90.25 428.11,-136.99 652.65,-136.99 4.21,0 8.72,0 12.84,0 454.28,0 778,156.04 971.15,468.03 193.15,312.08 223.93,765.27 92.36,1359.55l-2559.96 0.1zm3613.95 1130.31c-129.47,-116.73 -196.36,-317.3 -200.57,-601.81l-388.5 0c-11.54,64.38 -17.25,129.97 -17.25,195.55 0,81.94 9.02,163.77 26.77,243.6 31.89,135.88 90.26,254.72 175.1,356.61 84.94,101.88 196.36,181.51 334.35,238.77 137.99,57.37 304.56,85.95 499.92,85.95 195.35,0 378.87,-20.16 550.86,-60.48 162.56,-36.7 320.1,-98.07 464.71,-181.31 137.99,-80.63 252.62,-181.51 343.88,-302.46 91.26,-121.04 153.93,-260.03 187.83,-417.08 34,-157.04 31.89,-288.72 -6.42,-394.82 -36.1,-103.29 -100.08,-194.95 -184.62,-264.35 -90.36,-73.1 -192.85,-130.47 -302.46,-168.88 -116.73,-42.42 -237.77,-79.62 -363.03,-111.41 -115.73,-28.08 -249.91,-67.89 -365.83,-96.98 -108.11,-26.07 -213.21,-65.88 -312.29,-116.33 -82.33,-40.61 -152.63,-102.08 -203.78,-178.2 -46.73,-72.21 -57.36,-163.46 -31.89,-273.88 34,-169.78 126.26,-306.77 276.99,-410.76 150.73,-104 347.08,-156.04 589.07,-156.04 237.77,0 424.5,52.04 560.39,156.04 135.88,103.99 195.25,283.4 178.3,538.12l388.6 0.2c29.69,-373.55 -48.84,-640.01 -235.67,-799.16 -186.82,-159.25 -458.49,-238.78 -815.11,-238.78 -369.34,0 -672.9,88.05 -910.68,264.25 -237.77,176.2 -386.29,402.24 -445.76,678.22 -46.73,216.52 -30.79,384.19 47.74,503.13 78.52,118.84 189.93,210.2 334.34,273.88 144.41,63.68 303.56,111.41 477.66,143.3 174.09,31.89 335.35,70.1 483.97,114.63 148.62,44.62 266.35,106.1 353.4,184.72 87.05,78.52 113.52,198.46 79.63,359.82 -17.65,81.63 -51.35,159.65 -98.78,228.75 -51.75,75.31 -116.53,141.1 -190.95,194.25 -85.24,60.47 -180.21,107 -280.29,136.99 -114.42,33.69 -233.56,51.04 -353,51.04 -6.42,0 -13.24,-0.2 -19.46,-0.2 -288.71,0 -497.81,-58.36 -627.27,-175.09l0.1 0.2z"/>
 </g>
</svg>
